<svg width="478" height="478" viewBox="0 0 478 478" fill="none" xmlns="http://www.w3.org/2000/svg">
<path d="M239 478C370.996 478 478 370.996 478 239C478 107.004 370.996 0 239 0C107.004 0 0 107.004 0 239C0 370.996 107.004 478 239 478Z" fill="url(#paint0_linear_5_61)"/>
<path d="M113.81 161.725C187.792 143.211 261.601 124.74 335.59 106.222C339.472 121.235 343.316 136.104 347.202 151.138C289.431 165.595 231.754 180.033 174.079 194.468C174.091 194.56 174.102 194.65 174.116 194.743H352.707C352.738 195.396 352.789 195.923 352.789 196.456C352.792 235.243 352.812 274.034 352.782 312.821C352.764 334.481 334.905 352.879 312.991 353.89C310.858 353.989 308.719 354.049 306.582 354.049C259.947 354.06 213.312 354.065 166.68 354.049C155.024 354.046 144.841 350.16 136.52 342.133C128.947 334.823 124.659 325.86 124.002 315.349C123.871 313.251 123.83 311.146 123.83 309.045C123.82 274.742 123.804 240.441 123.853 206.142C123.86 202.571 123.462 199.13 122.533 195.665C119.619 184.818 116.882 173.928 114.079 163.051C113.985 162.686 113.929 162.311 113.81 161.725ZM134.635 241.259V243.058C134.635 266.219 134.631 289.383 134.649 312.543C134.649 313.809 134.761 315.085 134.952 316.339C137.409 332.36 150.489 343.422 166.955 343.422C214.149 343.422 261.346 343.422 308.542 343.416C309.834 343.416 311.129 343.356 312.416 343.262C329.259 342.055 341.977 328.59 341.977 311.957C341.977 289.07 341.977 266.188 341.977 243.3V241.259H134.635ZM167.663 205.427C168.019 205.995 168.228 206.369 168.472 206.714C173.781 214.248 179.11 221.769 184.379 229.332C184.995 230.215 185.599 230.568 186.691 230.559C193.048 230.508 199.406 230.534 205.761 230.529C206.241 230.529 206.723 230.462 207.263 230.419C207.144 230.113 207.117 229.939 207.025 229.81C201.511 221.95 196.005 214.079 190.432 206.255C190.101 205.79 189.242 205.473 188.621 205.457C185.19 205.381 181.757 205.42 178.326 205.42C174.86 205.42 171.391 205.427 167.663 205.427ZM258.531 230.534C258.143 229.897 257.936 229.507 257.686 229.151C252.37 221.606 247.03 214.079 241.748 206.51C241.156 205.666 240.546 205.4 239.545 205.404C233.124 205.444 226.701 205.423 220.28 205.427C219.862 205.427 219.443 205.467 218.821 205.499C219.122 205.965 219.287 206.238 219.466 206.494C224.35 213.457 229.378 220.326 234.05 227.425C235.723 229.966 237.55 230.715 240.484 230.601C246.381 230.371 252.296 230.534 258.531 230.534ZM269.881 205.427C270.249 206.013 270.454 206.381 270.695 206.728C276.011 214.268 281.351 221.794 286.623 229.36C287.248 230.261 287.887 230.564 288.955 230.555C295.261 230.511 301.567 230.534 307.873 230.529C308.363 230.529 308.85 230.469 309.486 230.428C309.3 230.053 309.211 229.799 309.066 229.59C303.608 221.81 298.157 214.025 292.646 206.282C292.313 205.816 291.476 205.473 290.867 205.46C287.211 205.384 283.548 205.423 279.887 205.423C276.643 205.423 273.398 205.427 269.881 205.427ZM302.67 151.264C302.303 150.885 302.165 150.712 302 150.57C294.724 144.328 287.453 138.077 280.143 131.871C279.775 131.56 279.019 131.427 278.529 131.546C271.989 133.132 265.464 134.782 258.933 136.418C258.694 136.478 258.474 136.6 257.858 136.846C258.382 137.186 258.687 137.338 258.936 137.551C265.17 142.869 271.525 148.06 277.562 153.585C280.073 155.883 282.27 156.681 285.653 155.626C291.148 153.911 296.819 152.733 302.67 151.264ZM203.568 176.069C203.302 175.723 203.2 175.527 203.046 175.391C195.886 169.283 188.706 163.202 181.591 157.046C180.705 156.281 180.017 156.163 178.921 156.448C173.604 157.834 168.261 159.117 162.933 160.445C161.702 160.751 160.482 161.086 158.932 161.495C160.681 163.002 162.189 164.296 163.692 165.588C169.481 170.559 175.258 175.545 181.084 180.472C181.59 180.902 182.508 181.277 183.099 181.137C189.858 179.528 196.593 177.816 203.568 176.069ZM208.658 149.01C208.844 149.359 208.872 149.481 208.95 149.545C216.26 155.826 223.559 162.118 230.92 168.343C231.393 168.741 232.393 168.831 233.052 168.674C239.216 167.197 245.357 165.639 251.504 164.096C252.012 163.97 252.503 163.789 253.214 163.57C245.938 157.34 238.832 151.34 231.85 145.209C230.378 143.919 229.088 143.66 227.333 144.305C226.135 144.747 224.841 144.94 223.589 145.255C218.655 146.496 213.721 147.732 208.658 149.01ZM134.716 230.435H156.058C156.044 230.233 156.074 230.102 156.025 230.03C150.414 222.036 144.804 214.043 139.164 206.066C138.948 205.76 138.484 205.483 138.116 205.457C137.014 205.377 135.903 205.427 134.72 205.427L134.716 230.435ZM133.189 193.682C140.219 191.921 147.082 190.202 154.392 188.369C153.764 187.911 153.433 187.704 153.139 187.452C146.399 181.709 139.663 175.962 132.932 170.214C130.684 168.295 129.876 168.212 126.983 169.722C129.039 177.653 131.096 185.602 133.189 193.682ZM320.949 205.487C326.465 213.317 331.883 220.845 337.087 228.512C338.385 230.424 339.777 230.904 341.869 230.343V205.483L320.949 205.487ZM327.742 119.19C320.974 120.893 314.397 122.545 307.816 124.199L307.66 124.669C307.951 124.847 308.269 124.99 308.523 125.206C315.218 130.908 321.974 136.54 328.547 142.373C330.284 143.912 331.767 144.478 333.95 143.207C331.899 135.27 329.834 127.277 327.742 119.19Z" fill="white"/>
<path d="M219.439 261.568C219.795 261.735 220.305 261.931 220.778 262.197C234.988 270.257 249.197 278.323 263.405 286.387C265.984 287.849 268.562 289.315 271.138 290.787C273.083 291.9 273.09 293.385 271.12 294.506C256.675 302.722 242.224 310.926 227.778 319.132C225.441 320.46 223.113 321.796 220.764 323.103C218.751 324.224 217.449 323.524 217.449 321.286C217.439 302.168 217.449 283.048 217.435 263.928C217.435 262.671 217.803 261.765 219.439 261.568Z" fill="white"/>
<defs>
<linearGradient id="paint0_linear_5_61" x1="11.8317" y1="320.611" x2="533.02" y2="141.428" gradientUnits="userSpaceOnUse">
<stop stop-color="#FF00CC"/>
<stop offset="1" stop-color="#333399"/>
</linearGradient>
</defs>
</svg>
