<svg width="87" height="27" viewBox="0 0 87 27" fill="none" xmlns="http://www.w3.org/2000/svg">
<path d="M13.5 27C20.9558 27 27 20.9558 27 13.5C27 6.04416 20.9558 0 13.5 0C6.04416 0 0 6.04416 0 13.5C0 20.9558 6.04416 27 13.5 27Z" fill="url(#paint0_linear_6_2)"/>
<path d="M6.4286 9.1351C10.6075 8.0893 14.7766 7.046 18.9559 6C19.1752 6.848 19.3923 7.6879 19.6118 8.5371C16.3486 9.3537 13.0907 10.1692 9.8329 10.9846C9.8336 10.9898 9.8342 10.9949 9.835 11.0001H19.9228C19.9245 11.037 19.9274 11.0668 19.9274 11.0969C19.9276 13.2878 19.9287 15.4789 19.927 17.6698C19.926 18.8933 18.9172 19.9325 17.6794 19.9896C17.5589 19.9952 17.4381 19.9986 17.3174 19.9986C14.6832 19.9992 12.049 19.9995 9.415 19.9986C8.7566 19.9984 8.1814 19.7789 7.7114 19.3255C7.2836 18.9126 7.0414 18.4063 7.0043 17.8126C6.9969 17.6941 6.9946 17.5752 6.9946 17.4565C6.994 15.5189 6.9931 13.5814 6.9959 11.644C6.9963 11.4423 6.9738 11.2479 6.9213 11.0522C6.7567 10.4395 6.6021 9.8244 6.4438 9.21C6.4385 9.1894 6.4353 9.1682 6.4286 9.1351ZM7.6049 13.6276V13.7292C7.6049 15.0375 7.6047 16.3459 7.6057 17.6541C7.6057 17.7256 7.612 17.7977 7.6228 17.8685C7.7616 18.7735 8.5004 19.3983 9.4305 19.3983C12.0963 19.3983 14.7622 19.3983 17.4281 19.398C17.5011 19.398 17.5742 19.3946 17.6469 19.3893C18.5983 19.3211 19.3167 18.5605 19.3167 17.621C19.3167 16.3282 19.3167 15.0357 19.3167 13.7429V13.6276H7.6049ZM9.4705 11.6036C9.4906 11.6357 9.5024 11.6568 9.5162 11.6763C9.8161 12.1019 10.1171 12.5267 10.4147 12.9539C10.4495 13.0038 10.4836 13.0237 10.5453 13.0232C10.9044 13.0203 11.2635 13.0218 11.6225 13.0215C11.6496 13.0215 11.6768 13.0177 11.7073 13.0153C11.7006 12.998 11.6991 12.9882 11.6939 12.9809C11.3824 12.5369 11.0714 12.0923 10.7566 11.6504C10.7379 11.6241 10.6894 11.6062 10.6543 11.6053C10.4605 11.601 10.2666 11.6032 10.0728 11.6032C9.877 11.6032 9.6811 11.6036 9.4705 11.6036ZM14.6032 13.0218C14.5813 12.9858 14.5696 12.9638 14.5555 12.9437C14.2552 12.5175 13.9536 12.0923 13.6552 11.6648C13.6218 11.6171 13.5873 11.6021 13.5308 11.6023C13.1681 11.6046 12.8053 11.6034 12.4426 11.6036C12.419 11.6036 12.3953 11.6059 12.3602 11.6077C12.3772 11.634 12.3865 11.6494 12.3966 11.6639C12.6725 12.0572 12.9565 12.4452 13.2204 12.8462C13.3149 12.9897 13.4181 13.032 13.5838 13.0256C13.9169 13.0126 14.251 13.0218 14.6032 13.0218ZM15.2443 11.6036C15.2651 11.6367 15.2767 11.6575 15.2903 11.6771C15.5906 12.103 15.8922 12.5281 16.19 12.9555C16.2253 13.0064 16.2614 13.0235 16.3217 13.023C16.6779 13.0205 17.0341 13.0218 17.3903 13.0215C17.418 13.0215 17.4455 13.0181 17.4814 13.0158C17.4709 12.9946 17.4659 12.9803 17.4577 12.9685C17.1494 12.529 16.8415 12.0893 16.5302 11.6519C16.5114 11.6256 16.4641 11.6062 16.4297 11.6055C16.2232 11.6012 16.0163 11.6034 15.8095 11.6034C15.6263 11.6034 15.443 11.6036 15.2443 11.6036ZM17.0964 8.5442C17.0757 8.5228 17.0679 8.513 17.0586 8.505C16.6476 8.1524 16.2369 7.7993 15.824 7.4488C15.8032 7.4312 15.7605 7.4237 15.7328 7.4304C15.3634 7.52 14.9948 7.6132 14.6259 7.7056C14.6124 7.709 14.6 7.7159 14.5652 7.7298C14.5948 7.749 14.612 7.7576 14.6261 7.7696C14.9782 8.07 15.3372 8.3632 15.6782 8.6753C15.82 8.8051 15.9441 8.8502 16.1352 8.7906C16.4456 8.6937 16.7659 8.6272 17.0964 8.5442ZM11.4986 9.9453C11.4836 9.9258 11.4778 9.9147 11.4691 9.907C11.0647 9.562 10.6591 9.2185 10.2572 8.8708C10.2072 8.8276 10.1683 8.8209 10.1064 8.837C9.8061 8.9153 9.5043 8.9878 9.2033 9.0628C9.1338 9.0801 9.0649 9.099 8.9773 9.1221C9.0761 9.2072 9.1613 9.2803 9.2462 9.3533C9.5732 9.6341 9.8995 9.9157 10.2286 10.194C10.2572 10.2183 10.309 10.2395 10.3424 10.2316C10.7242 10.1407 11.1046 10.044 11.4986 9.9453ZM11.7861 8.4169C11.7966 8.4366 11.7982 8.4435 11.8026 8.4471C12.2155 8.8019 12.6278 9.1573 13.0436 9.5089C13.0703 9.5314 13.1268 9.5365 13.164 9.5276C13.5122 9.4442 13.8591 9.3562 14.2063 9.269C14.235 9.2619 14.2627 9.2517 14.3029 9.2393C13.8919 8.8874 13.4905 8.5485 13.0961 8.2022C13.013 8.1293 12.9401 8.1147 12.841 8.1511C12.7733 8.1761 12.7002 8.187 12.6295 8.2048C12.3508 8.2749 12.0721 8.3447 11.7861 8.4169ZM7.6095 13.0162H8.815C8.8142 13.0048 8.8159 12.9974 8.8131 12.9933C8.4962 12.5418 8.1793 12.0903 7.8607 11.6397C7.8485 11.6224 7.8223 11.6068 7.8015 11.6053C7.7393 11.6008 7.6765 11.6036 7.6097 11.6036L7.6095 13.0162ZM7.5232 10.9402C7.9203 10.8407 8.308 10.7436 8.7209 10.6401C8.6854 10.6142 8.6667 10.6025 8.6501 10.5883C8.2694 10.2639 7.8889 9.9393 7.5087 9.6146C7.3817 9.5062 7.3361 9.5015 7.1727 9.5868C7.2888 10.0348 7.405 10.4838 7.5232 10.9402ZM18.1289 11.607C18.4405 12.0493 18.7465 12.4745 19.0405 12.9076C19.1138 13.0156 19.1924 13.0427 19.3106 13.011V11.6068L18.1289 11.607ZM18.5126 6.7325C18.1303 6.8287 17.7588 6.922 17.3871 7.0154L17.3783 7.042C17.3947 7.052 17.4127 7.0601 17.427 7.0723C17.8052 7.3944 18.1868 7.7125 18.5581 8.042C18.6562 8.1289 18.74 8.1609 18.8633 8.0891C18.7474 7.6408 18.6308 7.1893 18.5126 6.7325Z" fill="white"/>
<path d="M12.3951 14.7748C12.4152 14.7842 12.444 14.7953 12.4707 14.8103C13.2734 15.2656 14.076 15.7212 14.8785 16.1767C15.0242 16.2593 15.1698 16.3421 15.3153 16.4252C15.4252 16.4881 15.4256 16.572 15.3143 16.6353C14.4984 17.0994 13.6821 17.5628 12.8661 18.0263C12.7341 18.1013 12.6026 18.1768 12.4699 18.2506C12.3562 18.3139 12.2827 18.2744 12.2827 18.148C12.2821 17.0681 12.2827 15.9881 12.2819 14.9081C12.2819 14.8371 12.3027 14.7859 12.3951 14.7748Z" fill="white"/>
<path d="M31.245 13V2.5H33.84L37.665 8.725L35.64 8.71L39.51 2.5H42.015V13H39.15V10.195C39.15 9.295 39.17 8.485 39.21 7.765C39.26 7.045 39.34 6.33 39.45 5.62L39.78 6.505L37.095 10.66H36.105L33.48 6.505L33.81 5.62C33.92 6.29 33.995 6.98 34.035 7.69C34.085 8.39 34.11 9.225 34.11 10.195V13H31.245ZM48.1618 13.15C47.3118 13.15 46.5518 12.97 45.8818 12.61C45.2118 12.25 44.6868 11.76 44.3068 11.14C43.9268 10.52 43.7368 9.805 43.7368 8.995C43.7368 8.185 43.9268 7.47 44.3068 6.85C44.6868 6.23 45.2118 5.74 45.8818 5.38C46.5518 5.02 47.3118 4.84 48.1618 4.84C49.0118 4.84 49.7668 5.02 50.4268 5.38C51.0968 5.74 51.6218 6.23 52.0018 6.85C52.3818 7.47 52.5718 8.185 52.5718 8.995C52.5718 9.805 52.3818 10.52 52.0018 11.14C51.6218 11.76 51.0968 12.25 50.4268 12.61C49.7668 12.97 49.0118 13.15 48.1618 13.15ZM48.1618 10.795C48.4618 10.795 48.7318 10.72 48.9718 10.57C49.2218 10.41 49.4118 10.195 49.5418 9.925C49.6818 9.645 49.7518 9.335 49.7518 8.995C49.7518 8.635 49.6818 8.32 49.5418 8.05C49.4118 7.78 49.2218 7.57 48.9718 7.42C48.7318 7.26 48.4618 7.18 48.1618 7.18C47.8518 7.18 47.5768 7.26 47.3368 7.42C47.0968 7.57 46.9068 7.785 46.7668 8.065C46.6268 8.335 46.5568 8.645 46.5568 8.995C46.5568 9.335 46.6268 9.645 46.7668 9.925C46.9068 10.195 47.0968 10.41 47.3368 10.57C47.5768 10.72 47.8518 10.795 48.1618 10.795ZM56.2723 13L52.9423 5.005H56.0473L57.8323 10.975L57.1123 10.99L58.9123 5.005H62.0023L58.5073 13H56.2723ZM63.264 13V5.005H66.054V13H63.264ZM64.659 3.49C64.149 3.49 63.754 3.375 63.474 3.145C63.194 2.905 63.054 2.57 63.054 2.14C63.054 1.74 63.194 1.415 63.474 1.165C63.764 0.904999 64.159 0.774999 64.659 0.774999C65.159 0.774999 65.549 0.894999 65.829 1.135C66.119 1.365 66.264 1.7 66.264 2.14C66.264 2.54 66.119 2.865 65.829 3.115C65.539 3.365 65.149 3.49 64.659 3.49ZM72.0974 13.15C71.1874 13.15 70.4024 12.975 69.7424 12.625C69.0824 12.265 68.5724 11.775 68.2124 11.155C67.8524 10.525 67.6724 9.81 67.6724 9.01C67.6724 8.41 67.7724 7.855 67.9724 7.345C68.1724 6.835 68.4524 6.395 68.8124 6.025C69.1724 5.645 69.5974 5.355 70.0874 5.155C70.5874 4.945 71.1324 4.84 71.7224 4.84C72.3024 4.84 72.8274 4.94 73.2974 5.14C73.7774 5.34 74.1874 5.625 74.5274 5.995C74.8774 6.365 75.1424 6.8 75.3224 7.3C75.5124 7.8 75.5974 8.35 75.5774 8.95L75.5624 9.58H69.2624L68.9174 8.185H73.3274L73.0574 8.485V8.2C73.0574 7.98 72.9974 7.79 72.8774 7.63C72.7674 7.46 72.6174 7.33 72.4274 7.24C72.2374 7.15 72.0224 7.105 71.7824 7.105C71.4424 7.105 71.1574 7.175 70.9274 7.315C70.7074 7.445 70.5374 7.635 70.4174 7.885C70.2974 8.135 70.2374 8.435 70.2374 8.785C70.2374 9.185 70.3174 9.53 70.4774 9.82C70.6474 10.11 70.8924 10.335 71.2124 10.495C71.5424 10.655 71.9424 10.735 72.4124 10.735C72.7224 10.735 72.9924 10.695 73.2224 10.615C73.4624 10.535 73.7174 10.395 73.9874 10.195L75.2774 12.01C74.9274 12.29 74.5724 12.515 74.2124 12.685C73.8624 12.845 73.5124 12.96 73.1624 13.03C72.8124 13.11 72.4574 13.15 72.0974 13.15ZM31.245 25V14.5H36C36.74 14.5 37.365 14.605 37.875 14.815C38.395 15.025 38.79 15.32 39.06 15.7C39.33 16.08 39.465 16.53 39.465 17.05C39.465 17.67 39.32 18.185 39.03 18.595C38.74 19.005 38.32 19.28 37.77 19.42L37.725 19.135C38.185 19.245 38.585 19.425 38.925 19.675C39.275 19.915 39.545 20.215 39.735 20.575C39.925 20.925 40.02 21.33 40.02 21.79C40.02 22.33 39.92 22.8 39.72 23.2C39.53 23.6 39.255 23.935 38.895 24.205C38.545 24.475 38.135 24.675 37.665 24.805C37.205 24.935 36.7 25 36.15 25H31.245ZM34.02 22.615H36.06C36.29 22.615 36.48 22.58 36.63 22.51C36.79 22.43 36.91 22.315 36.99 22.165C37.08 22.015 37.125 21.835 37.125 21.625C37.125 21.425 37.08 21.26 36.99 21.13C36.9 21 36.77 20.9 36.6 20.83C36.43 20.75 36.225 20.71 35.985 20.71H34.02V22.615ZM34.02 18.655H35.52C35.76 18.655 35.96 18.62 36.12 18.55C36.28 18.48 36.4 18.38 36.48 18.25C36.56 18.11 36.6 17.95 36.6 17.77C36.6 17.5 36.51 17.285 36.33 17.125C36.15 16.965 35.865 16.885 35.475 16.885H34.02V18.655ZM44.5651 25.135C43.9051 25.135 43.3101 24.96 42.7801 24.61C42.2601 24.25 41.8451 23.76 41.5351 23.14C41.2351 22.51 41.0851 21.795 41.0851 20.995C41.0851 20.175 41.2351 19.455 41.5351 18.835C41.8351 18.215 42.2501 17.73 42.7801 17.38C43.3101 17.02 43.9201 16.84 44.6101 16.84C44.9801 16.84 45.3201 16.89 45.6301 16.99C45.9401 17.09 46.2101 17.235 46.4401 17.425C46.6701 17.615 46.8701 17.83 47.0401 18.07C47.2101 18.31 47.3501 18.57 47.4601 18.85L46.8901 18.82V17.005H49.6351V25H46.8301V23.05L47.4451 23.08C47.3551 23.37 47.2201 23.64 47.0401 23.89C46.8701 24.14 46.6601 24.36 46.4101 24.55C46.1601 24.73 45.8801 24.875 45.5701 24.985C45.2701 25.085 44.9351 25.135 44.5651 25.135ZM45.3601 22.84C45.6801 22.84 45.9551 22.77 46.1851 22.63C46.4151 22.48 46.5901 22.265 46.7101 21.985C46.8401 21.705 46.9051 21.375 46.9051 20.995C46.9051 20.605 46.8401 20.27 46.7101 19.99C46.5901 19.71 46.4151 19.5 46.1851 19.36C45.9551 19.21 45.6801 19.135 45.3601 19.135C45.0401 19.135 44.7651 19.21 44.5351 19.36C44.3151 19.5 44.1451 19.71 44.0251 19.99C43.9051 20.27 43.8451 20.605 43.8451 20.995C43.8451 21.375 43.9051 21.705 44.0251 21.985C44.1451 22.265 44.3151 22.48 44.5351 22.63C44.7651 22.77 45.0401 22.84 45.3601 22.84ZM51.4336 25V23.59L55.7536 18.16V19.225H51.4336V17.005H58.4236V18.505L54.4186 23.74L54.3586 22.78H58.5736V25H51.4336ZM63.1833 25.135C62.5233 25.135 61.9283 24.96 61.3983 24.61C60.8783 24.25 60.4633 23.76 60.1533 23.14C59.8533 22.51 59.7033 21.795 59.7033 20.995C59.7033 20.175 59.8533 19.455 60.1533 18.835C60.4533 18.215 60.8683 17.73 61.3983 17.38C61.9283 17.02 62.5383 16.84 63.2283 16.84C63.5983 16.84 63.9383 16.89 64.2483 16.99C64.5583 17.09 64.8283 17.235 65.0583 17.425C65.2883 17.615 65.4883 17.83 65.6583 18.07C65.8283 18.31 65.9683 18.57 66.0783 18.85L65.5083 18.82V17.005H68.2533V25H65.4483V23.05L66.0633 23.08C65.9733 23.37 65.8383 23.64 65.6583 23.89C65.4883 24.14 65.2783 24.36 65.0283 24.55C64.7783 24.73 64.4983 24.875 64.1883 24.985C63.8883 25.085 63.5533 25.135 63.1833 25.135ZM63.9783 22.84C64.2983 22.84 64.5733 22.77 64.8033 22.63C65.0333 22.48 65.2083 22.265 65.3283 21.985C65.4583 21.705 65.5233 21.375 65.5233 20.995C65.5233 20.605 65.4583 20.27 65.3283 19.99C65.2083 19.71 65.0333 19.5 64.8033 19.36C64.5733 19.21 64.2983 19.135 63.9783 19.135C63.6583 19.135 63.3833 19.21 63.1533 19.36C62.9333 19.5 62.7633 19.71 62.6433 19.99C62.5233 20.27 62.4633 20.605 62.4633 20.995C62.4633 21.375 62.5233 21.705 62.6433 21.985C62.7633 22.265 62.9333 22.48 63.1533 22.63C63.3833 22.77 63.6583 22.84 63.9783 22.84ZM73.2468 25.135C72.5868 25.135 71.9918 24.96 71.4618 24.61C70.9418 24.25 70.5268 23.76 70.2168 23.14C69.9168 22.51 69.7668 21.795 69.7668 20.995C69.7668 20.175 69.9168 19.455 70.2168 18.835C70.5168 18.215 70.9318 17.73 71.4618 17.38C71.9918 17.02 72.6018 16.84 73.2918 16.84C73.6618 16.84 74.0018 16.89 74.3118 16.99C74.6218 17.09 74.8918 17.235 75.1218 17.425C75.3518 17.615 75.5518 17.83 75.7218 18.07C75.8918 18.31 76.0318 18.57 76.1418 18.85L75.5718 18.82V17.005H78.3168V25H75.5118V23.05L76.1268 23.08C76.0368 23.37 75.9018 23.64 75.7218 23.89C75.5518 24.14 75.3418 24.36 75.0918 24.55C74.8418 24.73 74.5618 24.875 74.2518 24.985C73.9518 25.085 73.6168 25.135 73.2468 25.135ZM74.0418 22.84C74.3618 22.84 74.6368 22.77 74.8668 22.63C75.0968 22.48 75.2718 22.265 75.3918 21.985C75.5218 21.705 75.5868 21.375 75.5868 20.995C75.5868 20.605 75.5218 20.27 75.3918 19.99C75.2718 19.71 75.0968 19.5 74.8668 19.36C74.6368 19.21 74.3618 19.135 74.0418 19.135C73.7218 19.135 73.4468 19.21 73.2168 19.36C72.9968 19.5 72.8268 19.71 72.7068 19.99C72.5868 20.27 72.5268 20.605 72.5268 20.995C72.5268 21.375 72.5868 21.705 72.7068 21.985C72.8268 22.265 72.9968 22.48 73.2168 22.63C73.4468 22.77 73.7218 22.84 74.0418 22.84ZM80.4152 25V17.005H83.0252L83.1752 19.63L82.5902 19.18C82.7202 18.74 82.9202 18.345 83.1902 17.995C83.4702 17.635 83.8052 17.355 84.1952 17.155C84.5852 16.945 84.9952 16.84 85.4252 16.84C85.6052 16.84 85.7752 16.855 85.9352 16.885C86.0952 16.905 86.2452 16.935 86.3852 16.975L85.6202 20.065C85.5102 19.995 85.3552 19.935 85.1552 19.885C84.9552 19.825 84.7402 19.795 84.5102 19.795C84.3102 19.795 84.1302 19.83 83.9702 19.9C83.8102 19.96 83.6752 20.05 83.5652 20.17C83.4552 20.29 83.3702 20.435 83.3102 20.605C83.2502 20.765 83.2202 20.955 83.2202 21.175V25H80.4152Z" fill="url(#paint1_linear_6_2)"/>
<defs>
<linearGradient id="paint0_linear_6_2" x1="0.66832" y1="18.1098" x2="30.1078" y2="7.9886" gradientUnits="userSpaceOnUse">
<stop stop-color="#FF00CC"/>
<stop offset="1" stop-color="#333399"/>
</linearGradient>
<linearGradient id="paint1_linear_6_2" x1="30" y1="25" x2="80.7762" y2="1.09811" gradientUnits="userSpaceOnUse">
<stop stop-color="#FF00CC"/>
<stop offset="1" stop-color="#333399"/>
</linearGradient>
</defs>
</svg>
