<svg width="90" height="40" viewBox="0 0 90 40" fill="none" xmlns="http://www.w3.org/2000/svg">
<path d="M18.5 34C25.9558 34 32 27.9558 32 20.5C32 13.0442 25.9558 7 18.5 7C11.0442 7 5 13.0442 5 20.5C5 27.9558 11.0442 34 18.5 34Z" fill="url(#paint0_linear_5_33)"/>
<path d="M11.4286 16.1351C15.6075 15.0893 19.7766 14.046 23.9559 13C24.1752 13.848 24.3923 14.6879 24.6118 15.5371C21.3486 16.3537 18.0907 17.1692 14.8329 17.9846C14.8336 17.9898 14.8342 17.9949 14.835 18.0001H24.9228C24.9245 18.037 24.9274 18.0668 24.9274 18.0969C24.9276 20.2878 24.9287 22.4789 24.927 24.6698C24.926 25.8933 23.9172 26.9325 22.6794 26.9896C22.5589 26.9952 22.4381 26.9986 22.3174 26.9986C19.6832 26.9992 17.049 26.9995 14.415 26.9986C13.7566 26.9984 13.1814 26.7789 12.7114 26.3255C12.2836 25.9126 12.0414 25.4063 12.0043 24.8126C11.9969 24.6941 11.9946 24.5752 11.9946 24.4565C11.994 22.5189 11.9931 20.5814 11.9959 18.644C11.9963 18.4423 11.9738 18.2479 11.9213 18.0522C11.7567 17.4395 11.6021 16.8244 11.4438 16.21C11.4385 16.1894 11.4353 16.1682 11.4286 16.1351ZM12.6049 20.6276V20.7292C12.6049 22.0375 12.6047 23.3459 12.6057 24.6541C12.6057 24.7256 12.612 24.7977 12.6228 24.8685C12.7616 25.7735 13.5004 26.3983 14.4305 26.3983C17.0963 26.3983 19.7622 26.3983 22.4281 26.398C22.5011 26.398 22.5742 26.3946 22.6469 26.3893C23.5983 26.3211 24.3167 25.5605 24.3167 24.621C24.3167 23.3282 24.3167 22.0357 24.3167 20.7429V20.6276H12.6049ZM14.4705 18.6036C14.4906 18.6357 14.5024 18.6568 14.5162 18.6763C14.8161 19.1019 15.1171 19.5267 15.4147 19.9539C15.4495 20.0038 15.4836 20.0237 15.5453 20.0232C15.9044 20.0203 16.2635 20.0218 16.6225 20.0215C16.6496 20.0215 16.6768 20.0177 16.7073 20.0153C16.7006 19.998 16.6991 19.9882 16.6939 19.9809C16.3824 19.5369 16.0714 19.0923 15.7566 18.6504C15.7379 18.6241 15.6894 18.6062 15.6543 18.6053C15.4605 18.601 15.2666 18.6032 15.0728 18.6032C14.877 18.6032 14.6811 18.6036 14.4705 18.6036ZM19.6032 20.0218C19.5813 19.9858 19.5696 19.9638 19.5555 19.9437C19.2552 19.5175 18.9536 19.0923 18.6552 18.6648C18.6218 18.6171 18.5873 18.6021 18.5308 18.6023C18.1681 18.6046 17.8053 18.6034 17.4426 18.6036C17.419 18.6036 17.3953 18.6059 17.3602 18.6077C17.3772 18.634 17.3865 18.6494 17.3966 18.6639C17.6725 19.0572 17.9565 19.4452 18.2204 19.8462C18.3149 19.9897 18.4181 20.032 18.5838 20.0256C18.9169 20.0126 19.251 20.0218 19.6032 20.0218ZM20.2443 18.6036C20.2651 18.6367 20.2767 18.6575 20.2903 18.6771C20.5906 19.103 20.8922 19.5281 21.19 19.9555C21.2253 20.0064 21.2614 20.0235 21.3217 20.023C21.6779 20.0205 22.0341 20.0218 22.3903 20.0215C22.418 20.0215 22.4455 20.0181 22.4814 20.0158C22.4709 19.9946 22.4659 19.9803 22.4577 19.9685C22.1494 19.529 21.8415 19.0893 21.5302 18.6519C21.5114 18.6256 21.4641 18.6062 21.4297 18.6055C21.2232 18.6012 21.0163 18.6034 20.8095 18.6034C20.6263 18.6034 20.443 18.6036 20.2443 18.6036ZM22.0964 15.5442C22.0757 15.5228 22.0679 15.513 22.0586 15.505C21.6476 15.1524 21.2369 14.7993 20.824 14.4488C20.8032 14.4312 20.7605 14.4237 20.7328 14.4304C20.3634 14.52 19.9948 14.6132 19.6259 14.7056C19.6124 14.709 19.6 14.7159 19.5652 14.7298C19.5948 14.749 19.612 14.7576 19.6261 14.7696C19.9782 15.07 20.3372 15.3632 20.6782 15.6753C20.82 15.8051 20.9441 15.8502 21.1352 15.7906C21.4456 15.6937 21.7659 15.6272 22.0964 15.5442ZM16.4986 16.9453C16.4836 16.9258 16.4778 16.9147 16.4691 16.907C16.0647 16.562 15.6591 16.2185 15.2572 15.8708C15.2072 15.8276 15.1683 15.8209 15.1064 15.837C14.8061 15.9153 14.5043 15.9878 14.2033 16.0628C14.1338 16.0801 14.0649 16.099 13.9773 16.1221C14.0761 16.2072 14.1613 16.2803 14.2462 16.3533C14.5732 16.6341 14.8995 16.9157 15.2286 17.194C15.2572 17.2183 15.309 17.2395 15.3424 17.2316C15.7242 17.1407 16.1046 17.044 16.4986 16.9453ZM16.7861 15.4169C16.7966 15.4366 16.7982 15.4435 16.8026 15.4471C17.2155 15.8019 17.6278 16.1573 18.0436 16.5089C18.0703 16.5314 18.1268 16.5365 18.164 16.5276C18.5122 16.4442 18.8591 16.3562 19.2063 16.269C19.235 16.2619 19.2627 16.2517 19.3029 16.2393C18.8919 15.8874 18.4905 15.5485 18.0961 15.2022C18.013 15.1293 17.9401 15.1147 17.841 15.1511C17.7733 15.1761 17.7002 15.187 17.6295 15.2048C17.3508 15.2749 17.0721 15.3447 16.7861 15.4169ZM12.6095 20.0162H13.815C13.8142 20.0048 13.8159 19.9974 13.8131 19.9933C13.4962 19.5418 13.1793 19.0903 12.8607 18.6397C12.8485 18.6224 12.8223 18.6068 12.8015 18.6053C12.7393 18.6008 12.6765 18.6036 12.6097 18.6036L12.6095 20.0162ZM12.5232 17.9402C12.9203 17.8407 13.308 17.7436 13.7209 17.6401C13.6854 17.6142 13.6667 17.6025 13.6501 17.5883C13.2694 17.2639 12.8889 16.9393 12.5087 16.6146C12.3817 16.5062 12.3361 16.5015 12.1727 16.5868C12.2888 17.0348 12.405 17.4838 12.5232 17.9402ZM23.1289 18.607C23.4405 19.0493 23.7465 19.4745 24.0405 19.9076C24.1138 20.0156 24.1924 20.0427 24.3106 20.011V18.6068L23.1289 18.607ZM23.5126 13.7325C23.1303 13.8287 22.7588 13.922 22.3871 14.0154L22.3783 14.042C22.3947 14.052 22.4127 14.0601 22.427 14.0723C22.8052 14.3944 23.1868 14.7125 23.5581 15.042C23.6562 15.1289 23.74 15.1609 23.8633 15.0891C23.7474 14.6408 23.6308 14.1893 23.5126 13.7325Z" fill="white"/>
<path d="M17.3951 21.7748C17.4152 21.7842 17.444 21.7953 17.4707 21.8103C18.2734 22.2656 19.076 22.7212 19.8785 23.1767C20.0242 23.2593 20.1698 23.3421 20.3153 23.4252C20.4252 23.4881 20.4256 23.572 20.3143 23.6353C19.4984 24.0994 18.6821 24.5628 17.8661 25.0263C17.7341 25.1013 17.6026 25.1768 17.4699 25.2506C17.3562 25.3139 17.2827 25.2744 17.2827 25.148C17.2821 24.0681 17.2827 22.9881 17.2819 21.9081C17.2819 21.8371 17.3027 21.7859 17.3951 21.7748Z" fill="white"/>
<path d="M42.91 20.168C42.3313 20.168 41.79 20.0467 41.286 19.804C40.7913 19.5613 40.39 19.2067 40.082 18.74C39.7833 18.2733 39.634 17.718 39.634 17.074V13.042C39.634 12.902 39.6013 12.7807 39.536 12.678C39.48 12.566 39.4007 12.482 39.298 12.426C39.1953 12.37 39.0787 12.342 38.948 12.342C38.8173 12.342 38.7007 12.37 38.598 12.426C38.4953 12.482 38.4113 12.566 38.346 12.678C38.2807 12.7807 38.248 12.902 38.248 13.042V20H35.658V13.14C35.658 12.5053 35.8073 11.9547 36.106 11.488C36.4047 11.0213 36.8013 10.662 37.296 10.41C37.8 10.1487 38.3507 10.018 38.948 10.018C39.5453 10.018 40.0913 10.1487 40.586 10.41C41.0807 10.662 41.4773 11.0213 41.776 11.488C42.0747 11.9547 42.224 12.5053 42.224 13.14V17.172C42.224 17.3027 42.2567 17.424 42.322 17.536C42.3873 17.6387 42.4713 17.7227 42.574 17.788C42.6767 17.844 42.7887 17.872 42.91 17.872C43.0313 17.872 43.1433 17.844 43.246 17.788C43.358 17.7227 43.4467 17.6387 43.512 17.536C43.5773 17.424 43.61 17.3027 43.61 17.172V13.14C43.61 12.5053 43.7593 11.9547 44.058 11.488C44.3567 11.0213 44.7533 10.662 45.248 10.41C45.752 10.1487 46.3027 10.018 46.9 10.018C47.488 10.018 48.0293 10.1487 48.524 10.41C49.0187 10.662 49.4153 11.0213 49.714 11.488C50.0127 11.9547 50.162 12.5053 50.162 13.14V20H47.586V13.014C47.586 12.8833 47.5533 12.7667 47.488 12.664C47.4227 12.5613 47.3387 12.482 47.236 12.426C47.1333 12.37 47.0213 12.342 46.9 12.342C46.7693 12.342 46.648 12.37 46.536 12.426C46.4333 12.482 46.3493 12.5613 46.284 12.664C46.228 12.7667 46.2 12.8833 46.2 13.014V17.074C46.2 17.718 46.046 18.2733 45.738 18.74C45.43 19.2067 45.0287 19.5613 44.534 19.804C44.0393 20.0467 43.498 20.168 42.91 20.168ZM55.2004 20.168C54.4724 20.168 53.8097 20.0093 53.2124 19.692C52.6244 19.3653 52.153 18.9173 51.7984 18.348C51.4437 17.7787 51.2664 17.1253 51.2664 16.388C51.2664 15.66 51.4437 15.0113 51.7984 14.442C52.153 13.8727 52.629 13.4293 53.2264 13.112C53.8237 12.7853 54.4864 12.622 55.2144 12.622C55.9424 12.622 56.6004 12.7853 57.1884 13.112C57.7857 13.4293 58.257 13.8727 58.6024 14.442C58.957 15.0113 59.1344 15.66 59.1344 16.388C59.1344 17.1253 58.957 17.7787 58.6024 18.348C58.257 18.9173 57.7857 19.3653 57.1884 19.692C56.6004 20.0093 55.9377 20.168 55.2004 20.168ZM55.2004 18.012C55.499 18.012 55.7604 17.942 55.9844 17.802C56.2177 17.662 56.395 17.4707 56.5164 17.228C56.6377 16.976 56.6984 16.696 56.6984 16.388C56.6984 16.0707 56.6377 15.7907 56.5164 15.548C56.395 15.3053 56.2177 15.114 55.9844 14.974C55.7604 14.834 55.499 14.764 55.2004 14.764C54.9017 14.764 54.6404 14.834 54.4164 14.974C54.1924 15.114 54.015 15.3053 53.8844 15.548C53.763 15.7907 53.7024 16.0707 53.7024 16.388C53.7024 16.696 53.763 16.976 53.8844 17.228C54.015 17.4707 54.1924 17.662 54.4164 17.802C54.6404 17.942 54.9017 18.012 55.2004 18.012ZM63.2338 20.182C62.7858 20.182 62.3798 20.07 62.0158 19.846C61.6612 19.622 61.4092 19.3093 61.2598 18.908L59.2298 12.79H61.8898L63.1498 17.718C63.1592 17.7553 63.1732 17.788 63.1918 17.816C63.2105 17.8347 63.2338 17.844 63.2618 17.844C63.2805 17.844 63.2992 17.8347 63.3178 17.816C63.3458 17.788 63.3645 17.7553 63.3738 17.718L64.6198 12.79H67.2378L65.2078 18.894C65.0585 19.2953 64.8018 19.6127 64.4378 19.846C64.0832 20.07 63.6818 20.182 63.2338 20.182ZM68.075 20V12.79H70.511V20H68.075ZM69.293 12.006C68.9197 12.006 68.5977 11.8707 68.327 11.6C68.0657 11.3293 67.935 11.012 67.935 10.648C67.935 10.2747 68.0657 9.95733 68.327 9.696C68.5977 9.42533 68.9197 9.29 69.293 9.29C69.6663 9.29 69.9837 9.42533 70.245 9.696C70.5157 9.95733 70.651 10.2747 70.651 10.648C70.651 11.012 70.5157 11.3293 70.245 11.6C69.9837 11.8707 69.6663 12.006 69.293 12.006ZM75.8228 20C75.0108 20 74.2921 19.8553 73.6668 19.566C73.0508 19.2767 72.5608 18.8613 72.1968 18.32C71.8421 17.7787 71.6648 17.1393 71.6648 16.402C71.6648 15.5807 71.8375 14.89 72.1828 14.33C72.5281 13.77 72.9855 13.3453 73.5548 13.056C74.1241 12.7667 74.7355 12.622 75.3888 12.622C76.0981 12.622 76.7095 12.7713 77.2228 13.07C77.7455 13.3593 78.1468 13.77 78.4268 14.302C78.7161 14.834 78.8608 15.4547 78.8608 16.164C78.8608 16.3133 78.8515 16.486 78.8328 16.682C78.8235 16.8687 78.8001 17.0273 78.7628 17.158H74.1848C74.2408 17.3633 74.3295 17.536 74.4508 17.676C74.5815 17.8067 74.7495 17.9047 74.9548 17.97C75.1695 18.0353 75.4121 18.068 75.6828 18.068H78.0628V20H75.8228ZM74.1008 15.744H76.5648C76.5648 15.604 76.5461 15.478 76.5088 15.366C76.4715 15.2447 76.4201 15.1327 76.3548 15.03C76.2895 14.9273 76.2101 14.8387 76.1168 14.764C76.0235 14.6893 75.9115 14.6333 75.7808 14.596C75.6501 14.5587 75.5101 14.54 75.3608 14.54C75.1648 14.54 74.9921 14.5727 74.8428 14.638C74.6935 14.7033 74.5675 14.792 74.4648 14.904C74.3621 15.0067 74.2781 15.1327 74.2128 15.282C74.1568 15.422 74.1195 15.576 74.1008 15.744ZM35.742 31V21.2H41.58C42.0933 21.2 42.5553 21.312 42.966 21.536C43.386 21.7507 43.722 22.054 43.974 22.446C44.226 22.838 44.352 23.3 44.352 23.832C44.352 24.1213 44.296 24.4013 44.184 24.672C44.072 24.9333 43.9227 25.1713 43.736 25.386C43.5493 25.5913 43.3253 25.7687 43.064 25.918C43.372 26.058 43.638 26.2493 43.862 26.492C44.0953 26.7347 44.2727 27.01 44.394 27.318C44.5247 27.626 44.59 27.9527 44.59 28.298C44.59 28.8393 44.4593 29.3153 44.198 29.726C43.946 30.1273 43.6053 30.44 43.176 30.664C42.7467 30.888 42.2707 31 41.748 31H35.742ZM38.416 28.886H41.104C41.2813 28.886 41.4307 28.8487 41.552 28.774C41.6827 28.69 41.7853 28.578 41.86 28.438C41.9347 28.298 41.972 28.144 41.972 27.976C41.972 27.808 41.9347 27.6587 41.86 27.528C41.7853 27.3973 41.6827 27.2947 41.552 27.22C41.4307 27.136 41.2813 27.094 41.104 27.094H38.416V28.886ZM38.416 25.05H40.81C40.9687 25.05 41.1087 25.0127 41.23 24.938C41.3607 24.854 41.4587 24.7467 41.524 24.616C41.5987 24.4853 41.636 24.3453 41.636 24.196C41.636 24.0467 41.5987 23.9113 41.524 23.79C41.4587 23.6593 41.3653 23.5567 41.244 23.482C41.1227 23.4073 40.978 23.37 40.81 23.37H38.416V25.05ZM48.7168 31.182C48.0915 31.182 47.5362 31.0233 47.0508 30.706C46.5655 30.3887 46.1828 29.9547 45.9028 29.404C45.6322 28.844 45.4968 28.2093 45.4968 27.5C45.4968 26.7533 45.6602 26.086 45.9868 25.498C46.3228 24.91 46.7895 24.4527 47.3868 24.126C47.9842 23.79 48.6888 23.622 49.5008 23.622C50.2942 23.622 50.9755 23.7853 51.5448 24.112C52.1235 24.4387 52.5715 24.8867 52.8888 25.456C53.2062 26.0253 53.3648 26.6787 53.3648 27.416V31H51.0268V29.88H50.9708C50.8402 30.132 50.6722 30.356 50.4668 30.552C50.2615 30.748 50.0142 30.902 49.7248 31.014C49.4448 31.126 49.1088 31.182 48.7168 31.182ZM49.4448 29.068C49.7435 29.068 50.0002 28.998 50.2148 28.858C50.4295 28.7087 50.5975 28.508 50.7188 28.256C50.8402 28.004 50.9008 27.7193 50.9008 27.402C50.9008 27.0847 50.8402 26.8093 50.7188 26.576C50.5975 26.3333 50.4295 26.142 50.2148 26.002C50.0002 25.8527 49.7435 25.778 49.4448 25.778C49.1555 25.778 48.8988 25.8527 48.6748 26.002C48.4602 26.142 48.2922 26.3333 48.1708 26.576C48.0495 26.8093 47.9888 27.0847 47.9888 27.402C47.9888 27.7193 48.0495 28.004 48.1708 28.256C48.2922 28.508 48.4602 28.7087 48.6748 28.858C48.8988 28.998 49.1555 29.068 49.4448 29.068ZM56.6063 31C56.1396 31 55.7476 30.9113 55.4303 30.734C55.1129 30.5567 54.8749 30.3233 54.7163 30.034C54.5669 29.7447 54.4923 29.432 54.4923 29.096C54.4923 28.7507 54.5763 28.452 54.7443 28.2C54.9123 27.9387 55.1503 27.71 55.4583 27.514L57.6843 26.1C57.7403 26.0627 57.7776 26.0253 57.7963 25.988C57.8149 25.9507 57.8243 25.918 57.8243 25.89C57.8243 25.8433 57.8056 25.806 57.7683 25.778C57.7309 25.75 57.6749 25.736 57.6003 25.736H54.7583V23.79H58.5803C58.9909 23.79 59.3503 23.8787 59.6583 24.056C59.9663 24.2333 60.2043 24.4713 60.3723 24.77C60.5403 25.0593 60.6243 25.3767 60.6243 25.722C60.6243 26.03 60.5496 26.324 60.4003 26.604C60.2509 26.884 60.0363 27.1127 59.7563 27.29L57.5303 28.704C57.4836 28.732 57.4463 28.7647 57.4183 28.802C57.3996 28.83 57.3903 28.858 57.3903 28.886C57.3903 28.9233 57.4089 28.9607 57.4463 28.998C57.4929 29.026 57.5536 29.04 57.6283 29.04H60.4843V31H56.6063ZM64.795 31.182C64.1696 31.182 63.6143 31.0233 63.129 30.706C62.6436 30.3887 62.261 29.9547 61.981 29.404C61.7103 28.844 61.575 28.2093 61.575 27.5C61.575 26.7533 61.7383 26.086 62.065 25.498C62.401 24.91 62.8676 24.4527 63.465 24.126C64.0623 23.79 64.767 23.622 65.579 23.622C66.3723 23.622 67.0536 23.7853 67.623 24.112C68.2016 24.4387 68.6496 24.8867 68.967 25.456C69.2843 26.0253 69.443 26.6787 69.443 27.416V31H67.105V29.88H67.049C66.9183 30.132 66.7503 30.356 66.545 30.552C66.3396 30.748 66.0923 30.902 65.803 31.014C65.523 31.126 65.187 31.182 64.795 31.182ZM65.523 29.068C65.8216 29.068 66.0783 28.998 66.293 28.858C66.5076 28.7087 66.6756 28.508 66.797 28.256C66.9183 28.004 66.979 27.7193 66.979 27.402C66.979 27.0847 66.9183 26.8093 66.797 26.576C66.6756 26.3333 66.5076 26.142 66.293 26.002C66.0783 25.8527 65.8216 25.778 65.523 25.778C65.2336 25.778 64.977 25.8527 64.753 26.002C64.5383 26.142 64.3703 26.3333 64.249 26.576C64.1276 26.8093 64.067 27.0847 64.067 27.402C64.067 27.7193 64.1276 28.004 64.249 28.256C64.3703 28.508 64.5383 28.7087 64.753 28.858C64.977 28.998 65.2336 29.068 65.523 29.068ZM73.8184 31.182C73.1931 31.182 72.6377 31.0233 72.1524 30.706C71.6671 30.3887 71.2844 29.9547 71.0044 29.404C70.7337 28.844 70.5984 28.2093 70.5984 27.5C70.5984 26.7533 70.7617 26.086 71.0884 25.498C71.4244 24.91 71.8911 24.4527 72.4884 24.126C73.0857 23.79 73.7904 23.622 74.6024 23.622C75.3957 23.622 76.0771 23.7853 76.6464 24.112C77.2251 24.4387 77.6731 24.8867 77.9904 25.456C78.3077 26.0253 78.4664 26.6787 78.4664 27.416V31H76.1284V29.88H76.0724C75.9417 30.132 75.7737 30.356 75.5684 30.552C75.3631 30.748 75.1157 30.902 74.8264 31.014C74.5464 31.126 74.2104 31.182 73.8184 31.182ZM74.5464 29.068C74.8451 29.068 75.1017 28.998 75.3164 28.858C75.5311 28.7087 75.6991 28.508 75.8204 28.256C75.9417 28.004 76.0024 27.7193 76.0024 27.402C76.0024 27.0847 75.9417 26.8093 75.8204 26.576C75.6991 26.3333 75.5311 26.142 75.3164 26.002C75.1017 25.8527 74.8451 25.778 74.5464 25.778C74.2571 25.778 74.0004 25.8527 73.7764 26.002C73.5617 26.142 73.3937 26.3333 73.2724 26.576C73.1511 26.8093 73.0904 27.0847 73.0904 27.402C73.0904 27.7193 73.1511 28.004 73.2724 28.256C73.3937 28.508 73.5617 28.7087 73.7764 28.858C74.0004 28.998 74.2571 29.068 74.5464 29.068ZM79.8318 31V25.96C79.8318 25.288 80.0232 24.7607 80.4058 24.378C80.7978 23.986 81.3392 23.79 82.0298 23.79H84.2418V25.694H82.7718C82.6225 25.694 82.5012 25.7407 82.4078 25.834C82.3145 25.9273 82.2678 26.0487 82.2678 26.198V31H79.8318Z" fill="url(#paint1_linear_5_33)"/>
<defs>
<linearGradient id="paint0_linear_5_33" x1="5.66832" y1="25.1098" x2="35.1078" y2="14.9886" gradientUnits="userSpaceOnUse">
<stop stop-color="#FF00CC"/>
<stop offset="1" stop-color="#333399"/>
</linearGradient>
<linearGradient id="paint1_linear_5_33" x1="35" y1="31" x2="79.5" y2="10" gradientUnits="userSpaceOnUse">
<stop stop-color="#FF00CC"/>
<stop offset="1" stop-color="#333399"/>
</linearGradient>
</defs>
</svg>
